<svg xmlns="http://www.w3.org/2000/svg" viewBox="73.00 -54.06 62.59 51.15" width="800" height="653">
<defs><style>
.land{fill:#e8d5b7;stroke:#4a4a4a;stroke-width:0.12;stroke-linejoin:round}
.ndl{fill:none;stroke:#4a4a4a;stroke-width:0.25;stroke-linecap:round}
.dot{fill:#4a4a4a}
</style></defs>
<rect x="73.00" y="-54.06" width="62.59" height="51.15" fill="#f0f8ff"/>
<path class="land" d="M124.52 -40.22L126.04 -40.93L126.54 -41.37L126.69 -41.75L126.93 -41.81L127.25 -41.49L128.11 -41.36L128.32 -41.58L128.03 -42.00L128.95 -42.03L129.34 -42.45L129.70 -42.43L129.90 -43.00L130.28 -42.89L130.26 -42.71L130.65 -42.43L130.59 -42.67L130.41 -42.73L131.15 -42.94L131.31 -43.39L131.20 -43.53L131.31 -44.05L130.97 -44.85L131.50 -44.98L131.89 -45.34L132.95 -45.02L133.14 -45.13L133.14 -45.43L133.47 -45.63L133.47 -45.83L133.91 -46.25L133.85 -46.48L134.22 -47.11L134.18 -47.33L134.78 -47.72L134.55 -47.98L134.68 -48.26L135.10 -48.44L133.13 -48.13L132.66 -47.94L132.56 -47.72L131.03 -47.69L130.67 -48.11L130.85 -48.30L130.54 -48.61L130.68 -48.88L130.24 -48.87L129.52 -49.42L129.08 -49.36L128.74 -49.60L127.82 -49.59L127.53 -49.83L127.60 -50.24L127.33 -50.34L127.30 -50.76L126.92 -51.06L126.98 -51.32L126.82 -51.28L126.91 -51.41L126.46 -51.95L126.56 -52.14L126.31 -52.21L126.43 -52.30L125.97 -52.63L126.12 -52.77L125.68 -52.86L125.61 -53.08L125.14 -53.20L124.87 -53.10L123.52 -53.56L120.88 -53.29L120.03 -52.77L120.08 -52.59L120.73 -52.54L120.63 -52.32L120.79 -52.16L120.66 -51.93L120.09 -51.68L119.13 -50.39L119.36 -50.36L119.35 -50.17L117.81 -49.52L116.72 -49.85L115.80 -48.51L115.82 -48.26L115.53 -48.16L115.58 -47.92L115.94 -47.68L116.27 -47.88L116.79 -47.90L117.38 -47.64L117.81 -48.02L118.57 -47.99L119.72 -47.20L119.91 -46.67L119.37 -46.60L118.91 -46.78L117.75 -46.52L117.42 -46.58L117.37 -46.36L116.59 -46.29L116.17 -45.69L115.36 -45.39L114.55 -45.39L114.12 -44.96L113.63 -44.75L112.00 -45.09L111.76 -44.97L111.42 -44.36L111.95 -43.69L111.02 -43.33L110.44 -42.78L109.29 -42.44L107.47 -42.46L105.01 -41.58L104.52 -41.66L104.53 -41.88L103.42 -41.88L102.07 -42.23L101.80 -42.50L100.86 -42.67L99.51 -42.57L97.17 -42.80L96.39 -42.73L96.36 -42.90L95.88 -43.28L95.53 -44.01L95.33 -44.03L95.41 -44.30L94.72 -44.34L93.51 -44.97L90.88 -45.19L90.68 -45.58L91.03 -46.02L90.90 -46.31L91.05 -46.72L90.56 -47.21L90.38 -47.64L89.57 -48.04L89.08 -47.99L88.64 -48.18L88.52 -48.40L87.97 -48.58L88.09 -48.72L87.74 -48.88L87.91 -48.98L87.82 -49.17L86.89 -49.13L86.58 -48.54L85.79 -48.42L85.59 -48.19L85.70 -47.29L85.55 -47.06L84.96 -46.86L84.75 -47.01L83.93 -46.97L83.03 -47.22L82.27 -45.62L82.55 -45.43L82.56 -45.20L81.92 -45.23L81.79 -45.38L79.89 -44.91L80.40 -44.63L80.39 -44.13L80.80 -43.18L80.38 -43.03L80.60 -42.89L80.26 -42.83L80.16 -42.63L80.29 -42.26L80.14 -42.03L78.16 -41.38L77.78 -41.02L76.89 -41.03L76.33 -40.34L76.28 -40.44L75.71 -40.28L75.60 -40.66L75.24 -40.45L74.84 -40.52L74.91 -40.34L74.02 -40.09L73.85 -39.83L73.87 -39.48L73.50 -39.38L73.84 -39.01L73.70 -38.86L73.80 -38.61L74.42 -38.65L74.86 -38.48L74.80 -38.17L75.01 -37.77L74.89 -37.67L75.14 -37.36L74.51 -37.24L74.50 -37.07L75.41 -36.95L75.46 -36.72L75.87 -36.67L76.06 -36.23L75.95 -36.07L76.16 -35.82L76.56 -35.92L76.77 -35.65L77.20 -35.52L78.14 -35.49L78.02 -35.23L78.28 -34.62L79.04 -34.33L78.66 -34.09L78.68 -33.65L79.15 -33.18L79.31 -32.60L78.97 -32.33L78.74 -32.70L78.40 -32.53L78.47 -32.13L78.76 -31.95L78.65 -31.82L78.85 -31.61L78.76 -31.36L79.10 -30.99L79.67 -30.98L80.04 -30.60L81.03 -30.25L81.13 -30.02L81.39 -30.20L81.42 -30.42L82.10 -30.35L82.18 -30.07L83.27 -29.57L83.60 -29.17L84.12 -29.29L84.23 -28.89L84.48 -28.74L84.86 -28.57L85.13 -28.68L85.11 -28.34L85.60 -28.25L85.72 -28.37L86.00 -27.91L86.19 -28.17L86.41 -27.90L86.70 -28.10L87.23 -27.81L88.76 -28.07L88.89 -27.85L88.78 -27.47L88.98 -27.21L89.18 -27.37L89.24 -27.80L89.79 -28.24L90.70 -28.08L91.03 -27.86L91.31 -28.06L91.46 -28.00L91.61 -27.89L91.59 -27.54L92.06 -27.39L92.11 -26.85L93.57 -26.94L93.84 -27.05L94.28 -27.58L94.89 -27.74L95.74 -28.28L96.28 -28.23L97.10 -27.74L97.39 -27.88L97.35 -28.24L97.69 -28.52L98.14 -28.14L98.32 -27.52L98.44 -27.67L98.71 -27.55L98.78 -26.62L98.72 -26.13L98.58 -26.12L98.71 -25.86L98.31 -25.54L98.17 -25.62L98.14 -25.38L97.72 -25.08L97.80 -24.85L97.55 -24.74L97.53 -24.44L97.77 -24.26L97.53 -23.93L97.65 -23.84L98.09 -24.09L98.88 -24.15L98.67 -23.80L98.88 -23.62L98.89 -23.21L99.53 -23.07L99.56 -22.93L99.32 -22.74L99.38 -22.49L99.22 -22.11L99.97 -22.05L99.99 -21.70L100.24 -21.47L100.58 -21.45L101.12 -21.77L101.22 -21.23L101.76 -21.15L101.83 -21.62L101.55 -22.24L101.67 -22.48L102.27 -22.42L102.51 -22.77L103.03 -22.44L103.32 -22.81L103.53 -22.59L103.64 -22.79L103.96 -22.50L104.12 -22.81L104.38 -22.69L104.74 -22.83L104.80 -23.11L105.33 -23.39L105.88 -22.92L106.53 -22.95L106.84 -22.80L106.56 -22.46L106.70 -21.96L107.00 -21.95L107.36 -21.60L107.86 -21.65L108.11 -21.51L108.24 -21.60L108.23 -21.49L108.63 -21.68L109.14 -21.57L109.14 -21.39L109.61 -21.56L109.89 -21.44L109.66 -20.93L109.93 -20.21L110.54 -20.42L110.21 -21.05L110.80 -21.37L111.97 -21.60L112.14 -21.79L112.93 -21.84L113.09 -22.13L113.27 -21.87L113.57 -22.08L113.68 -22.73L113.89 -22.44L114.38 -22.60L114.51 -22.44L114.63 -22.51L114.52 -22.66L114.71 -22.79L114.89 -22.54L115.19 -22.82L115.58 -22.65L115.65 -22.87L115.83 -22.73L116.51 -22.93L116.89 -23.50L117.46 -23.58L117.91 -24.01L118.16 -24.27L118.12 -24.57L118.61 -24.52L118.79 -24.78L118.65 -24.84L118.99 -24.88L118.92 -25.26L119.12 -25.01L119.13 -25.22L119.38 -25.25L119.14 -25.39L119.22 -25.47L119.45 -25.49L119.60 -25.33L119.87 -25.46L119.79 -25.67L119.68 -25.48L119.48 -25.63L119.72 -26.01L119.60 -26.17L119.95 -26.35L119.58 -26.62L119.87 -26.64L119.94 -26.78L120.06 -26.77L119.83 -26.52L120.14 -26.64L120.05 -26.86L120.55 -27.16L120.71 -27.68L120.94 -27.90L121.19 -27.82L120.99 -27.95L121.06 -28.10L121.26 -28.03L121.49 -28.30L121.63 -28.25L121.54 -28.66L121.77 -28.86L121.61 -29.17L121.99 -29.11L122.00 -29.58L121.83 -29.65L122.14 -29.90L121.72 -29.99L121.06 -30.56L121.68 -30.82L122.13 -30.60L121.95 -31.07L121.34 -31.51L121.98 -31.46L121.86 -31.96L121.46 -32.18L121.39 -32.46L120.96 -32.61L120.83 -33.27L120.31 -34.31L119.24 -34.80L119.21 -34.98L119.66 -35.59L120.31 -35.97L120.12 -36.10L120.18 -36.20L120.36 -36.20L120.29 -36.05L120.71 -36.13L120.69 -36.39L120.97 -36.47L120.85 -36.62L121.57 -36.83L121.65 -36.72L122.01 -36.96L122.53 -36.90L122.48 -37.13L122.71 -37.39L122.17 -37.44L122.15 -37.56L121.57 -37.44L120.73 -37.83L120.23 -37.69L120.25 -37.56L119.84 -37.38L119.74 -37.13L119.33 -37.12L119.00 -37.32L118.99 -37.62L119.28 -37.74L118.97 -38.09L118.02 -38.20L117.64 -38.53L117.65 -38.83L117.85 -38.86L117.84 -39.06L118.03 -39.22L118.49 -38.91L118.58 -39.13L118.93 -39.12L119.32 -39.41L119.54 -39.89L120.49 -40.20L121.13 -40.87L121.82 -40.89L122.27 -40.48L121.23 -39.55L121.27 -39.37L121.72 -39.36L121.63 -39.08L121.09 -38.92L121.14 -38.72L121.71 -38.87L121.67 -39.01L121.92 -38.97L122.37 -39.39L123.27 -39.75L124.15 -39.75L124.52 -40.22Z"/>
<path class="land" d="M120.44 -22.44L120.64 -22.24L120.70 -21.93L120.87 -21.90L120.98 -22.53L121.43 -23.14L121.64 -24.10L121.89 -24.53L121.84 -24.84L122.01 -25.00L121.92 -25.14L121.75 -25.16L121.62 -25.29L121.02 -25.04L120.10 -23.70L120.11 -23.34L120.02 -23.07L120.13 -23.00L120.27 -22.56L120.44 -22.44Z"/>
<path class="land" d="M110.11 -20.03L109.66 -20.01L109.50 -19.87L109.30 -19.92L109.15 -19.70L108.64 -19.35L108.59 -19.14L108.64 -18.49L108.88 -18.42L108.94 -18.31L109.11 -18.32L109.58 -18.14L109.75 -18.19L109.79 -18.34L110.07 -18.38L110.25 -18.61L110.50 -18.65L110.68 -19.29L111.06 -19.61L111.04 -19.76L110.97 -20.02L110.81 -20.04L110.69 -20.16L110.11 -20.03Z"/>
<path class="land" d="M114.03 -22.50L113.92 -22.42L114.03 -22.35L113.85 -22.19L114.00 -22.21L114.07 -22.33L114.27 -22.20L114.28 -22.39L114.39 -22.36L114.33 -22.48L114.22 -22.43L114.34 -22.50L114.26 -22.55L114.03 -22.50Z"/>
<path class="land" d="M122.16 -29.99L122.32 -29.94L122.34 -30.02L121.93 -30.16L122.03 -29.99L122.16 -29.99Z"/>
<!-- Nine-dash line (九段线) - 10 segments -->
<g class="ndl">
  <line x1="122.791" y1="-24.586" x2="122.507" y2="-23.454"/>
  <line x1="121.908" y1="-21.702" x2="121.158" y2="-20.804"/>
  <line x1="120.022" y1="-19.038" x2="119.460" y2="-18.003"/>
  <line x1="119.063" y1="-16.054" x2="119.062" y2="-14.998"/>
  <line x1="118.529" y1="-10.902" x2="118.982" y2="-11.998"/>
  <line x1="116.249" y1="-7.993" x2="115.531" y2="-7.146"/>
  <line x1="111.779" y1="-3.405" x2="112.857" y2="-3.746"/>
  <line x1="108.300" y1="-6.006" x2="108.233" y2="-7.086"/>
  <line x1="110.062" y1="-11.238" x2="110.325" y2="-12.250"/>
  <line x1="109.860" y1="-15.147" x2="109.298" y2="-16.210"/>
</g>
<!-- South China Sea islands (南海诸岛) -->
<g class="dot">
  <circle cx="112.24" cy="-3.88" r="0.08"/>
  <circle cx="112.04" cy="-3.86" r="0.08"/>
  <circle cx="117.77" cy="-15.17" r="0.08"/>
  <circle cx="111.77" cy="-16.24" r="0.08"/>
  <circle cx="114.02" cy="-8.83" r="0.08"/>
  <circle cx="112.03" cy="-16.33" r="0.08"/>
  <circle cx="112.20" cy="-8.87" r="0.08"/>
  <circle cx="114.22" cy="-8.75" r="0.08"/>
  <circle cx="114.72" cy="-10.35" r="0.08"/>
  <circle cx="114.65" cy="-9.95" r="0.08"/>
  <circle cx="116.30" cy="-8.89" r="0.08"/>
  <circle cx="112.59" cy="-8.84" r="0.08"/>
  <circle cx="112.46" cy="-16.29" r="0.08"/>
  <circle cx="111.52" cy="-16.45" r="0.08"/>
  <circle cx="115.54" cy="-9.90" r="0.08"/>
  <circle cx="114.57" cy="-8.13" r="0.08"/>
  <circle cx="115.24" cy="-8.36" r="0.08"/>
  <circle cx="116.48" cy="-9.16" r="0.08"/>
  <circle cx="114.75" cy="-11.06" r="0.08"/>
  <circle cx="114.94" cy="-10.87" r="0.08"/>
  <circle cx="113.92" cy="-8.86" r="0.08"/>
  <circle cx="116.75" cy="-11.47" r="0.08"/>
  <circle cx="112.54" cy="-16.50" r="0.08"/>
  <circle cx="113.86" cy="-10.06" r="0.08"/>
  <circle cx="116.58" cy="-9.73" r="0.08"/>
  <circle cx="116.85" cy="-10.48" r="0.08"/>
  <circle cx="115.96" cy="-9.30" r="0.08"/>
  <circle cx="114.69" cy="-7.59" r="0.08"/>
  <circle cx="114.53" cy="-10.76" r="0.08"/>
  <circle cx="114.28" cy="-10.27" r="0.08"/>
  <circle cx="110.53" cy="-8.12" r="0.08"/>
  <circle cx="115.28" cy="-8.49" r="0.08"/>
  <circle cx="114.09" cy="-10.93" r="0.08"/>
  <circle cx="114.26" cy="-16.05" r="0.08"/>
  <circle cx="115.54" cy="-8.49" r="0.08"/>
  <circle cx="111.69" cy="-8.65" r="0.08"/>
  <circle cx="112.37" cy="-8.93" r="0.08"/>
  <circle cx="116.49" cy="-9.80" r="0.08"/>
  <circle cx="114.47" cy="-15.59" r="0.08"/>
  <circle cx="114.12" cy="-15.99" r="0.08"/>
  <circle cx="114.84" cy="-7.22" r="0.08"/>
  <circle cx="111.71" cy="-7.69" r="0.08"/>
  <circle cx="112.55" cy="-5.79" r="0.08"/>
  <circle cx="114.89" cy="-7.98" r="0.08"/>
  <circle cx="113.60" cy="-6.94" r="0.08"/>
  <circle cx="116.72" cy="-16.34" r="0.08"/>
  <circle cx="112.69" cy="-5.08" r="0.08"/>
  <circle cx="112.27" cy="-8.87" r="0.08"/>
  <circle cx="112.61" cy="-5.52" r="0.08"/>
  <circle cx="113.62" cy="-10.23" r="0.08"/>
  <circle cx="113.88" cy="-15.48" r="0.08"/>
  <circle cx="112.58" cy="-5.10" r="0.08"/>
  <circle cx="112.24" cy="-16.77" r="0.08"/>
  <circle cx="112.49" cy="-5.76" r="0.08"/>
  <circle cx="113.23" cy="-6.31" r="0.08"/>
  <circle cx="114.98" cy="-7.51" r="0.08"/>
  <circle cx="113.96" cy="-15.82" r="0.08"/>
  <circle cx="116.72" cy="-9.04" r="0.08"/>
  <circle cx="115.78" cy="-10.45" r="0.08"/>
  <circle cx="115.79" cy="-10.52" r="0.08"/>
  <circle cx="112.54" cy="-9.54" r="0.08"/>
  <circle cx="117.28" cy="-11.05" r="0.08"/>
  <circle cx="114.18" cy="-9.37" r="0.08"/>
  <circle cx="112.56" cy="-5.96" r="0.08"/>
</g>
</svg>